<?xml version="1.0" encoding="utf-8"?>
<!-- Generator: Adobe Illustrator 16.0.0, SVG Export Plug-In . SVG Version: 6.00 Build 0)  -->
<!DOCTYPE svg PUBLIC "-//W3C//DTD SVG 1.1//EN" "http://www.w3.org/Graphics/SVG/1.1/DTD/svg11.dtd">
<svg version="1.1" id="layer" xmlns="http://www.w3.org/2000/svg" xmlns:xlink="http://www.w3.org/1999/xlink" x="0px" y="0px"
	 width="224px" height="171px" viewBox="-9.36 339.945 224 171" enable-background="new -9.36 339.945 224 171"
	 xml:space="preserve">
<g>
	<path fill="#1E398D" d="M41.733,484.479l0.041,20.354l5.221,0.083l0.04-11.529c0,0,0.203-4.911,3.806-5.744
		c0,0,2.996-0.832,3.4,2.331l0.122,14.9l5.101,0.042l0.04-16.69c0,0-0.363-5.285-6.233-5.202c0,0-5.02-0.333-6.963,4.454
		l0.162-4.038L41.733,484.479z"/>
	<path fill="#1E398D" d="M76.302,483.647l-0.607,4.703c0,0-5.424-1.622-7.084,0.542c0,0-2.348,2.705-1.539,7.782
		c0,0,0.77,4.87,6.112,3.787l2.833-0.708l0.243,4.537c0,0-2.915,1.374-6.881,1.083c-3.967-0.292-6.922-3.538-7.61-7.076
		c-1.458-7.824,2.388-12.112,2.388-12.112s2.551-2.954,7.611-2.996h0.525L76.302,483.647z"/>
	<path fill="#1E398D" d="M38.737,504.916l-0.121-15.982c0,0-0.364-4.661-4.736-5.618c0,0-5.545-1.166-9.918,0.582l-0.971,0.458
		v4.411c0,0,3.563-1.748,6.234-1.581c0,0,3.319-0.084,4.008,2.081l0.04,2.789c0,0-7.529-0.334-9.311,2.206
		c0,0-4.291,3.33-1.781,8.864c0,0,1.498,2.372,4.817,2.331c0,0,4.575,0.582,6.68-3.912l0.202-0.126l-0.041,3.539L38.737,504.916z
		 M33.232,498.215c-0.486,2.539-2.874,2.914-2.874,2.914s-2.308,0.666-3.44-0.75c-1.134-1.415-0.203-2.83-0.203-2.83
		c1.214-2.414,6.638-2.08,6.638-2.08l0.081,1.955L33.232,498.215z"/>
	<path fill="#1E398D" d="M15.381,490.141c0,0,3.967-1.498,4.169-5.911c0,0,0.404-6.034-6.193-7.116H1.861v27.845l9.998-0.084
		c0,0,7.813-0.457,8.136-6.826C19.995,498.048,21.088,491.264,15.381,490.141z M6.881,481.109l4.736,0.042
		c3.076,0.914,2.752,3.912,2.752,3.912c-0.284,3.204-3.806,3.621-3.806,3.621H6.84L6.881,481.109z M14.854,497.091
		c-0.243,2.872-3.036,3.579-3.036,3.579l-4.938-0.041v-7.908l5.059,0.125C15.259,493.762,14.854,497.091,14.854,497.091z"/>
	<path fill="#1E398D" d="M88.324,482.94h-0.526c0,0-9.756,0.125-10.201,10.737c-0.445,10.613,6.315,11.862,9.756,11.737
		c2.915-0.083,10.241-2.039,10.322-11.57C97.757,484.314,92.656,483.564,88.324,482.94z M89.984,500.13
		c-1.861,1.248-4.493,0.208-4.493,0.208c-2.428-1.291-3.076-4.786-2.347-8.616c0.85-4.536,4.979-4.162,4.979-4.162h0.324
		c0,0,3.521,0.167,3.805,4.162C92.534,496.385,91.846,498.881,89.984,500.13z"/>
	<path fill="#1E398D" d="M117.955,482.94h-0.527c0,0-9.755,0.125-10.2,10.737c-0.445,10.613,6.314,11.862,9.755,11.737
		c2.915-0.083,10.242-2.039,10.323-11.57C127.386,484.314,122.287,483.564,117.955,482.94z M119.574,500.13
		c-1.862,1.248-4.494,0.208-4.494,0.208c-2.388-1.291-3.036-4.786-2.307-8.616c0.85-4.536,4.979-4.162,4.979-4.162h0.283
		c0,0,3.521,0.167,3.805,4.162C122.125,496.385,121.436,498.881,119.574,500.13z"/>
	<path fill="#1E398D" d="M207.374,504.916l-0.122-15.982c0,0-0.364-4.661-4.735-5.618c0,0-5.546-1.166-9.918,0.582l-0.972,0.458
		v4.411c0,0,3.603-1.748,6.234-1.581c0,0,3.319-0.084,4.008,2.081l0.04,2.789c0,0-7.528-0.334-9.31,2.206
		c0,0-4.251,3.33-1.782,8.864c0,0,1.499,2.372,4.818,2.331c0,0,4.574,0.582,6.678-3.912l0.204-0.126l-0.041,3.539L207.374,504.916z
		 M201.828,498.215c-0.486,2.539-2.874,2.914-2.874,2.914s-2.307,0.666-3.441-0.75c-1.133-1.415-0.202-2.83-0.202-2.83
		c1.214-2.414,6.638-2.08,6.638-2.08l0.082,1.955L201.828,498.215z"/>
	<polygon fill="#1E398D" points="99.861,476.073 105.002,474.782 105.042,504.833 99.902,504.833 	"/>
	<path fill="#1E398D" d="M129.695,484.479l4.776-1.04l-0.162,4.038c1.943-4.787,6.962-4.454,6.962-4.454
		c3.764-0.083,5.262,2.04,5.869,3.62c2.146-3.87,6.518-3.62,6.518-3.62c5.909-0.125,6.233,5.202,6.233,5.202l-0.041,16.69
		l-5.101-0.042l-0.121-14.9c-0.404-3.163-3.4-2.331-3.4-2.331c-2.713,0.625-3.481,3.538-3.725,4.954l-0.041,12.319h-0.08
		l-5.02-0.042l-0.122-14.9c-0.445-3.163-3.4-2.331-3.4-2.331c-3.603,0.833-3.805,5.744-3.805,5.744l-0.041,11.529l-5.222-0.083
		L129.695,484.479z"/>
	<path fill="#1E398D" d="M167.786,500.837l0.08-8.657c0,0,0.364-3.287,3.683-3.871c0,0,2.591-0.749,3.522,3.081
		c0,0,0.688,2.288,0.042,5.66c0,0-0.567,3.121-2.712,3.746c0,0-2.308,0.582-4.251,0.124L167.786,500.837z M167.704,474.741
		c0,0-3.967,0.54-5.1,1.332l-0.041,28.136c0,0,6.558,1.456,11.618,0.582c0,0,7.083-1.581,6.436-11.903c0,0,0.607-8.532-7.124-8.948
		c0,0-4.413-0.166-5.95,3.453L167.704,474.741z"/>
	<path fill="#1E398D" d="M188.348,483.522v21.227l-5.666-0.041l0.04-21.186H188.348z M182.399,477.238
		c0-1.873,1.497-3.371,3.319-3.371c1.822,0,3.319,1.498,3.319,3.371s-1.497,3.371-3.319,3.371
		C183.896,480.609,182.399,479.069,182.399,477.238"/>
</g>
<g>
	<path fill="#1E398D" d="M83.192,358.362c2.7-2.071,40.033-15.099,95.801-12.907c0,0,3.992,0.487,5.636,4.262l5.635,12.661
		c0,0,3.052,4.019-1.643,4.262c0,0-41.913,2.679-54.946,4.992c-13.149,2.436-39.917,9.496-39.917,9.496s-3.874,1.218-5.518-1.216
		l-6.222-17.412C82.018,362.501,80.374,360.431,83.192,358.362"/>
	<path fill="#FFE600" d="M64.172,400.001c2.7-2.07,75.021-28.125,130.789-25.811c0,0,2.7-0.122,4.461,3.652l6.222,16.802
		c0,0,1.996,4.017-3.052,5.112c0,0-56.002,10.472-71.382,14.732c-20.546,5.236-55.649,17.898-55.649,17.898s-4.813,1.705-7.045-2.8
		l-5.634-21.429C62.763,408.281,61.354,402.071,64.172,400.001"/>
	<path fill="#FF0219" d="M114.303,427.273c2.7-2.069,23.599-9.617,78.427-20.088c0,0,5.87-1.34,7.513,2.434l7.045,21.064
		c0,0,2.23,4.871-4.227,7.55c0,0-22.19,8.766-34.752,13.271c-14.205,4.993-38.156,15.462-38.156,15.462s-5.988,2.314-8.1-4.504
		l-9.629-29.829C112.543,432.753,111.603,429.344,114.303,427.273"/>
</g>
</svg>
